<?xml version="1.0" standalone="no"?>
<!DOCTYPE svg PUBLIC "-//W3C//DTD SVG 20010904//EN"
 "http://www.w3.org/TR/2001/REC-SVG-20010904/DTD/svg10.dtd">
<svg version="1.0" xmlns="http://www.w3.org/2000/svg"
 width="512.000000pt" height="512.000000pt" viewBox="0 0 512.000000 512.000000"
 preserveAspectRatio="xMidYMid meet">
<metadata>
Created by potrace 1.14, written by Peter Selinger 2001-2017
</metadata>
<g transform="translate(0.000000,512.000000) scale(0.100000,-0.100000)"
fill="#000000" stroke="none">
<path d="M0 2560 l0 -2560 2560 0 2560 0 0 2560 0 2560 -2560 0 -2560 0 0
-2560z m3389 1201 c200 -39 364 -71 366 -73 2 -2 -5 -52 -15 -113 -10 -60 -37
-227 -59 -370 -37 -236 -92 -588 -172 -1100 -31 -204 -38 -239 -43 -234 -2 2
-49 200 -105 439 -55 239 -157 678 -226 974 -69 297 -125 541 -125 543 0 6 13
3 379 -66z m-1609 -496 c0 -250 4 -425 9 -425 5 0 170 153 366 341 196 187
360 339 364 337 4 -2 84 -32 177 -67 93 -36 171 -66 173 -67 2 -2 -9 -18 -24
-36 -23 -28 -376 -415 -467 -514 l-28 -30 24 -85 c13 -46 37 -133 54 -194 102
-367 246 -887 257 -927 7 -26 10 -49 7 -52 -3 -3 -83 -6 -177 -6 -127 0 -175
3 -183 13 -9 10 -93 295 -251 846 -15 52 -32 96 -39 99 -6 2 -68 -52 -137
-119 l-125 -122 0 -353 0 -354 -112 0 c-62 0 -157 3 -210 7 l-98 6 0 1011 0
1012 198 51 c108 28 203 52 210 52 9 1 12 -90 12 -424z m1775 -1602 c21 -55
85 -246 83 -249 -7 -6 -210 -124 -215 -124 -2 0 -53 34 -113 75 l-108 75 51
120 50 120 123 0 c107 0 123 -2 129 -17z"/>
</g>
</svg>
